<svg width="48" height="48" viewBox="0 0 48 48" fill="none" xmlns="http://www.w3.org/2000/svg">
<ellipse cx="23.6066" cy="23.6065" rx="23.6066" ry="23.6065" fill="#4BA586"/>
<path d="M18.5784 23.0427C19.5384 23.2473 20.3095 23.7273 20.8918 24.4827C21.4741 25.2223 21.7652 26.0722 21.7652 27.0322C21.7652 28.4171 21.2774 29.5187 20.3016 30.3371C19.3416 31.1397 17.9961 31.541 16.2649 31.541H8.54558V14.9692H16.0052C17.6892 14.9692 19.0033 15.3548 19.9475 16.1259C20.9075 16.8971 21.3875 17.9437 21.3875 19.2656C21.3875 20.2414 21.1279 21.0518 20.6085 21.6971C20.1049 22.3423 19.4282 22.7909 18.5784 23.0427ZM12.5823 21.6735H15.2262C15.8872 21.6735 16.3908 21.5318 16.737 21.2486C17.099 20.9496 17.28 20.5168 17.28 19.9502C17.28 19.3837 17.099 18.9509 16.737 18.6518C16.3908 18.3528 15.8872 18.2033 15.2262 18.2033H12.5823V21.6735ZM15.5567 28.2833C16.2334 28.2833 16.7528 28.1338 17.1147 27.8348C17.4925 27.52 17.6813 27.0715 17.6813 26.4892C17.6813 25.9069 17.4846 25.4505 17.0911 25.12C16.7134 24.7895 16.1862 24.6243 15.5095 24.6243H12.5823V28.2833H15.5567ZM39.0495 14.9692V31.541H35.0127V24.7187H28.7334V31.541H24.6967V14.9692H28.7334V21.461H35.0127V14.9692H39.0495Z" fill="#FEFEFF"/>
</svg>
