<svg width="390" height="20" viewBox="0 0 390 20" fill="none" xmlns="http://www.w3.org/2000/svg">
<line x1="0.5" y1="9.90002" x2="176.5" y2="9.90001" stroke="url(#paint0_linear_1_103)" stroke-linecap="round"/>
<path d="M191.64 8.85202C192.6 8.85202 193.363 8.98536 193.928 9.25202C194.504 9.51869 194.915 9.95602 195.16 10.564C195.416 11.172 195.544 11.9774 195.544 12.98C195.544 13.9827 195.416 14.788 195.16 15.396C194.915 15.9934 194.504 16.4307 193.928 16.708C193.363 16.9747 192.6 17.108 191.64 17.108C190.701 17.108 189.944 16.9747 189.368 16.708C188.803 16.4307 188.392 15.9934 188.136 15.396C187.88 14.788 187.752 13.9827 187.752 12.98C187.752 11.9774 187.88 11.172 188.136 10.564C188.392 9.95602 188.803 9.51869 189.368 9.25202C189.944 8.98536 190.701 8.85202 191.64 8.85202ZM191.64 10.324C191.171 10.324 190.797 10.404 190.52 10.564C190.253 10.7134 190.061 10.98 189.944 11.364C189.827 11.748 189.768 12.2867 189.768 12.98C189.768 13.6734 189.827 14.212 189.944 14.596C190.061 14.98 190.253 15.2467 190.52 15.396C190.797 15.5454 191.171 15.62 191.64 15.62C192.12 15.62 192.499 15.5454 192.776 15.396C193.053 15.2467 193.245 14.98 193.352 14.596C193.469 14.212 193.528 13.6734 193.528 12.98C193.528 12.2867 193.469 11.748 193.352 11.364C193.245 10.98 193.053 10.7134 192.776 10.564C192.499 10.404 192.12 10.324 191.64 10.324ZM198.873 9.04402L199.129 10.58L199.305 10.804V16.9H197.369V9.04402H198.873ZM202.713 8.85202L202.521 10.644H201.961C201.545 10.644 201.124 10.7134 200.697 10.852C200.271 10.9907 199.737 11.1987 199.097 11.476L198.969 10.34C199.524 9.87069 200.089 9.50802 200.665 9.25202C201.241 8.98536 201.796 8.85202 202.329 8.85202H202.713Z" fill="#4F4E4E"/>
<line x1="0.5" y1="-0.5" x2="176.5" y2="-0.5" transform="matrix(-1 -8.74228e-08 -8.74228e-08 1 390 10.4)" stroke="url(#paint1_linear_1_103)" stroke-linecap="round"/>
<defs>
<linearGradient id="paint0_linear_1_103" x1="-23.895" y1="10.4" x2="309.75" y2="10.3999" gradientUnits="userSpaceOnUse">
<stop stop-color="#4F4E4E" stop-opacity="0"/>
<stop offset="1" stop-color="#4F4E4E"/>
</linearGradient>
<linearGradient id="paint1_linear_1_103" x1="-23.895" y1="1.2415e-06" x2="309.75" y2="-5.30676e-05" gradientUnits="userSpaceOnUse">
<stop stop-color="#4F4E4E" stop-opacity="0"/>
<stop offset="1" stop-color="#4F4E4E"/>
</linearGradient>
</defs>
</svg>
